# MagicaVoxel @ Ephtracy

# group
g clone kit-rawClone

# material
mtllib clone kit-rawClone.mtl
usemtl palette

# normals
vn -1 0 0
vn 1 0 0
vn 0 0 1
vn 0 0 -1
vn 0 -1 0
vn 0 1 0

# texcoords
vt 0.431641 0.5
vt 0.435547 0.5
vt 0.619141 0.5
vt 0.740234 0.5
vt 0.744141 0.5
vt 0.892578 0.5
vt 0.896484 0.5
vt 0.958984 0.5
vt 0.986328 0.5

# verts
v -5.5 5 0.5
v -5.5 5 -0.5
v -5.5 6 0.5
v -5.5 6 -0.5
v -4.5 6 2.5
v -4.5 6 0.5
v -4.5 6 -0.5
v -4.5 6 -1.5
v -4.5 9 -0.5
v -4.5 9 -1.5
v -4.5 10 2.5
v -4.5 10 -0.5
v -3.5 0 0.5
v -3.5 0 -0.5
v -3.5 2 1.5
v -3.5 2 0.5
v -3.5 2 -0.5
v -3.5 2 -1.5
v -3.5 5 1.5
v -3.5 5 0.5
v -3.5 5 -0.5
v -3.5 5 -1.5
v -3.5 6 1.5
v -3.5 6 0.5
v -3.5 6 -0.5
v -3.5 6 -1.5
v -3.5 6 -2.5
v -3.5 9 -0.5
v -3.5 9 -1.5
v -3.5 10 1.5
v -3.5 10 -0.5
v -3.5 10 -1.5
v -3.5 10 -2.5
v -3.5 11 1.5
v -3.5 11 -1.5
v -2.5 7 1.5
v -2.5 7 0.5
v -2.5 8 1.5
v -2.5 8 0.5
v -0.5 0 0.5
v -0.5 0 -0.5
v -0.5 2 0.5
v -0.5 2 -0.5
v -0.5 11 1.5
v -0.5 11 -0.5
v -0.5 12 1.5
v -0.5 12 -0.5
v 0.5 6 2.5
v 0.5 6 1.5
v 0.5 7 1.5
v 0.5 7 0.5
v 0.5 8 2.5
v 0.5 8 1.5
v 0.5 8 0.5
v 0.5 9 2.5
v 0.5 9 1.5
v -3.5 6 2.5
v -3.5 6 1.5
v -3.5 7 1.5
v -3.5 7 0.5
v -3.5 8 1.5
v -3.5 8 0.5
v -3.5 9 2.5
v -3.5 9 1.5
v -2.5 0 0.5
v -2.5 0 -0.5
v -2.5 2 0.5
v -2.5 2 -0.5
v -0.5 7 1.5
v -0.5 7 0.5
v -0.5 8 1.5
v -0.5 8 0.5
v 0.5 0 0.5
v 0.5 0 -0.5
v 0.5 2 1.5
v 0.5 2 0.5
v 0.5 2 -0.5
v 0.5 2 -1.5
v 0.5 5 1.5
v 0.5 5 0.5
v 0.5 5 -0.5
v 0.5 5 -1.5
v 0.5 6 1.5
v 0.5 6 0.5
v 0.5 6 -0.5
v 0.5 6 -1.5
v 0.5 6 -2.5
v 0.5 10 -0.5
v 0.5 10 -1.5
v 0.5 10 -2.5
v 0.5 11 -0.5
v 0.5 11 -1.5
v 1.5 6 2.5
v 1.5 6 0.5
v 1.5 6 -0.5
v 1.5 6 -1.5
v 1.5 8 2.5
v 1.5 8 1.5
v 1.5 9 1.5
v 1.5 9 -0.5
v 1.5 10 2.5
v 1.5 10 1.5
v 1.5 10 -0.5
v 1.5 10 -1.5
v 1.5 12 1.5
v 1.5 12 -0.5
v 2.5 5 0.5
v 2.5 5 -0.5
v 2.5 6 0.5
v 2.5 6 -0.5
v -4.5 6 2.5
v -4.5 10 2.5
v -3.5 6 2.5
v -3.5 9 2.5
v -0.5 9 2.5
v -0.5 10 2.5
v 0.5 6 2.5
v 0.5 8 2.5
v 0.5 9 2.5
v 1.5 6 2.5
v 1.5 8 2.5
v 1.5 10 2.5
v -3.5 2 1.5
v -3.5 5 1.5
v -3.5 6 1.5
v -3.5 7 1.5
v -3.5 8 1.5
v -3.5 9 1.5
v -3.5 10 1.5
v -3.5 11 1.5
v -2.5 7 1.5
v -2.5 8 1.5
v -1.5 7 1.5
v -1.5 9 1.5
v -1.5 10 1.5
v -1.5 11 1.5
v -0.5 6 1.5
v -0.5 7 1.5
v -0.5 8 1.5
v -0.5 9 1.5
v -0.5 10 1.5
v -0.5 11 1.5
v -0.5 12 1.5
v 0.5 2 1.5
v 0.5 5 1.5
v 0.5 6 1.5
v 0.5 7 1.5
v 0.5 8 1.5
v 0.5 9 1.5
v 0.5 10 1.5
v 0.5 11 1.5
v 1.5 10 1.5
v 1.5 12 1.5
v -5.5 5 0.5
v -5.5 6 0.5
v -4.5 6 0.5
v -3.5 0 0.5
v -3.5 2 0.5
v -3.5 5 0.5
v -3.5 6 0.5
v -3.5 7 0.5
v -3.5 8 0.5
v -2.5 0 0.5
v -2.5 2 0.5
v -2.5 7 0.5
v -2.5 8 0.5
v -0.5 0 0.5
v -0.5 2 0.5
v -0.5 7 0.5
v -0.5 8 0.5
v 0.5 0 0.5
v 0.5 2 0.5
v 0.5 5 0.5
v 0.5 6 0.5
v 0.5 7 0.5
v 0.5 8 0.5
v 1.5 5 0.5
v 1.5 6 0.5
v 2.5 5 0.5
v 2.5 6 0.5
v -5.5 5 -0.5
v -5.5 6 -0.5
v -4.5 6 -0.5
v -4.5 9 -0.5
v -4.5 10 -0.5
v -3.5 0 -0.5
v -3.5 2 -0.5
v -3.5 5 -0.5
v -3.5 6 -0.5
v -3.5 9 -0.5
v -3.5 10 -0.5
v -2.5 0 -0.5
v -2.5 2 -0.5
v -0.5 0 -0.5
v -0.5 2 -0.5
v -0.5 11 -0.5
v -0.5 12 -0.5
v 0.5 0 -0.5
v 0.5 2 -0.5
v 0.5 5 -0.5
v 0.5 6 -0.5
v 0.5 10 -0.5
v 0.5 11 -0.5
v 1.5 5 -0.5
v 1.5 6 -0.5
v 1.5 10 -0.5
v 1.5 12 -0.5
v 2.5 5 -0.5
v 2.5 6 -0.5
v -4.5 6 -1.5
v -4.5 9 -1.5
v -3.5 2 -1.5
v -3.5 5 -1.5
v -3.5 6 -1.5
v -3.5 9 -1.5
v -3.5 10 -1.5
v -3.5 11 -1.5
v -1.5 10 -1.5
v -1.5 11 -1.5
v 0.5 2 -1.5
v 0.5 5 -1.5
v 0.5 6 -1.5
v 0.5 10 -1.5
v 0.5 11 -1.5
v 1.5 6 -1.5
v 1.5 10 -1.5
v -3.5 6 -2.5
v -3.5 10 -2.5
v 0.5 6 -2.5
v 0.5 10 -2.5
v -3.5 0 0.5
v -2.5 0 0.5
v -0.5 0 0.5
v 0.5 0 0.5
v -3.5 0 -0.5
v -2.5 0 -0.5
v -0.5 0 -0.5
v 0.5 0 -0.5
v -3.5 2 1.5
v 0.5 2 1.5
v -3.5 2 0.5
v -2.5 2 0.5
v -0.5 2 0.5
v 0.5 2 0.5
v -3.5 2 -0.5
v -2.5 2 -0.5
v -0.5 2 -0.5
v 0.5 2 -0.5
v -3.5 2 -1.5
v 0.5 2 -1.5
v -5.5 5 0.5
v -3.5 5 0.5
v 0.5 5 0.5
v 1.5 5 0.5
v 2.5 5 0.5
v -5.5 5 -0.5
v -3.5 5 -0.5
v 0.5 5 -0.5
v 1.5 5 -0.5
v 2.5 5 -0.5
v -4.5 6 2.5
v -3.5 6 2.5
v 0.5 6 2.5
v 1.5 6 2.5
v -3.5 6 1.5
v 0.5 6 1.5
v -4.5 6 0.5
v -3.5 6 0.5
v 0.5 6 0.5
v 1.5 6 0.5
v -4.5 6 -0.5
v -3.5 6 -0.5
v 0.5 6 -0.5
v 1.5 6 -0.5
v -4.5 6 -1.5
v -3.5 6 -1.5
v 0.5 6 -1.5
v 1.5 6 -1.5
v -3.5 6 -2.5
v 0.5 6 -2.5
v -3.5 8 1.5
v -2.5 8 1.5
v -0.5 8 1.5
v 0.5 8 1.5
v -3.5 8 0.5
v -2.5 8 0.5
v -0.5 8 0.5
v 0.5 8 0.5
v -3.5 9 2.5
v -0.5 9 2.5
v 0.5 9 2.5
v -3.5 9 1.5
v -1.5 9 1.5
v -0.5 9 1.5
v 0.5 9 1.5
v -5.5 6 0.5
v -4.5 6 0.5
v 1.5 6 0.5
v 2.5 6 0.5
v -5.5 6 -0.5
v -4.5 6 -0.5
v 1.5 6 -0.5
v 2.5 6 -0.5
v -3.5 7 1.5
v -2.5 7 1.5
v -0.5 7 1.5
v 0.5 7 1.5
v -3.5 7 0.5
v -2.5 7 0.5
v -0.5 7 0.5
v 0.5 7 0.5
v -4.5 9 -0.5
v -3.5 9 -0.5
v -4.5 9 -1.5
v -3.5 9 -1.5
v -4.5 10 2.5
v -0.5 10 2.5
v 1.5 10 2.5
v -3.5 10 1.5
v -1.5 10 1.5
v -0.5 10 1.5
v 0.5 10 1.5
v 1.5 10 1.5
v -4.5 10 -0.5
v -3.5 10 -0.5
v 0.5 10 -0.5
v 1.5 10 -0.5
v -3.5 10 -1.5
v -1.5 10 -1.5
v 0.5 10 -1.5
v 1.5 10 -1.5
v -3.5 10 -2.5
v 0.5 10 -2.5
v -3.5 11 1.5
v -1.5 11 1.5
v -0.5 11 1.5
v -0.5 11 -0.5
v 0.5 11 -0.5
v -3.5 11 -1.5
v -1.5 11 -1.5
v 0.5 11 -1.5
v -0.5 12 1.5
v 1.5 12 1.5
v -0.5 12 -0.5
v 1.5 12 -0.5

# faces
f 3/1/1 2/1/1 1/1/1
f 4/1/1 2/1/1 3/1/1
f 9/7/1 6/7/1 5/7/1
f 9/7/1 8/7/1 7/7/1
f 9/7/1 7/7/1 6/7/1
f 10/7/1 8/7/1 9/7/1
f 11/7/1 9/7/1 5/7/1
f 12/7/1 9/7/1 11/7/1
f 16/1/1 14/1/1 13/1/1
f 17/1/1 14/1/1 16/1/1
f 19/1/1 16/1/1 15/1/1
f 19/1/1 18/1/1 17/1/1
f 19/1/1 17/1/1 16/1/1
f 20/1/1 18/1/1 19/1/1
f 21/1/1 18/1/1 20/1/1
f 22/1/1 18/1/1 21/1/1
f 23/3/1 20/3/1 19/3/1
f 24/3/1 20/3/1 23/3/1
f 25/3/1 22/3/1 21/3/1
f 26/3/1 22/3/1 25/3/1
f 29/7/1 27/7/1 26/7/1
f 31/7/1 29/7/1 28/7/1
f 32/7/1 27/7/1 29/7/1
f 32/7/1 29/7/1 31/7/1
f 33/7/1 27/7/1 32/7/1
f 34/7/1 31/7/1 30/7/1
f 34/7/1 32/7/1 31/7/1
f 35/7/1 32/7/1 34/7/1
f 38/1/1 37/1/1 36/1/1
f 39/1/1 37/1/1 38/1/1
f 42/1/1 41/1/1 40/1/1
f 43/1/1 41/1/1 42/1/1
f 46/9/1 45/9/1 44/9/1
f 47/9/1 45/9/1 46/9/1
f 50/7/1 49/7/1 48/7/1
f 52/7/1 50/7/1 48/7/1
f 52/7/1 51/7/1 50/7/1
f 53/7/1 51/7/1 52/7/1
f 54/7/1 51/7/1 53/7/1
f 55/6/1 53/6/1 52/6/1
f 56/6/1 53/6/1 55/6/1
f 57/7/2 58/7/2 59/7/2
f 57/7/2 59/7/2 61/7/2
f 59/7/2 60/7/2 61/7/2
f 61/7/2 60/7/2 62/7/2
f 57/7/2 61/7/2 63/7/2
f 63/7/2 61/7/2 64/7/2
f 65/1/2 66/1/2 67/1/2
f 67/1/2 66/1/2 68/1/2
f 69/4/2 70/4/2 71/4/2
f 71/4/2 70/4/2 72/4/2
f 73/1/2 74/1/2 76/1/2
f 76/1/2 74/1/2 77/1/2
f 75/1/2 76/1/2 79/1/2
f 77/1/2 78/1/2 79/1/2
f 76/1/2 77/1/2 79/1/2
f 79/1/2 78/1/2 80/1/2
f 80/1/2 78/1/2 81/1/2
f 81/1/2 78/1/2 82/1/2
f 79/3/2 80/3/2 83/3/2
f 83/3/2 80/3/2 84/3/2
f 81/3/2 82/3/2 85/3/2
f 85/3/2 82/3/2 86/3/2
f 86/7/2 87/7/2 89/7/2
f 89/7/2 87/7/2 90/7/2
f 88/6/2 89/6/2 91/6/2
f 91/6/2 89/6/2 92/6/2
f 93/7/2 94/7/2 97/7/2
f 95/7/2 96/7/2 97/7/2
f 94/7/2 95/7/2 97/7/2
f 97/7/2 96/7/2 98/7/2
f 97/6/2 98/6/2 99/6/2
f 98/7/2 96/7/2 99/7/2
f 99/7/2 96/7/2 100/7/2
f 97/6/2 99/6/2 101/6/2
f 99/6/2 100/6/2 101/6/2
f 101/6/2 100/6/2 102/6/2
f 100/7/2 96/7/2 103/7/2
f 102/6/2 100/6/2 103/6/2
f 103/7/2 96/7/2 104/7/2
f 102/9/2 103/9/2 105/9/2
f 105/9/2 103/9/2 106/9/2
f 107/1/2 108/1/2 109/1/2
f 109/1/2 108/1/2 110/1/2
f 113/7/3 112/7/3 111/7/3
f 114/7/3 112/7/3 113/7/3
f 115/7/3 112/7/3 114/7/3
f 116/7/3 112/7/3 115/7/3
f 119/6/3 116/6/3 115/6/3
f 120/7/3 118/7/3 117/7/3
f 121/6/3 119/6/3 118/6/3
f 121/7/3 118/7/3 120/7/3
f 122/6/3 116/6/3 119/6/3
f 122/6/3 119/6/3 121/6/3
f 131/1/3 126/1/3 125/1/3
f 132/1/3 128/1/3 127/1/3
f 133/1/3 131/1/3 125/1/3
f 133/1/3 132/1/3 131/1/3
f 134/1/3 128/1/3 132/1/3
f 134/1/3 132/1/3 133/1/3
f 135/7/3 130/7/3 129/7/3
f 136/7/3 130/7/3 135/7/3
f 137/3/3 125/3/3 124/3/3
f 137/1/3 133/1/3 125/1/3
f 138/4/3 134/4/3 133/4/3
f 138/1/3 133/1/3 137/1/3
f 139/4/3 134/4/3 138/4/3
f 140/4/3 134/4/3 139/4/3
f 141/6/3 136/6/3 135/6/3
f 142/6/3 136/6/3 141/6/3
f 144/1/3 124/1/3 123/1/3
f 145/3/3 137/3/3 124/3/3
f 145/1/3 124/1/3 144/1/3
f 146/4/3 138/4/3 137/4/3
f 146/3/3 137/3/3 145/3/3
f 147/4/3 138/4/3 146/4/3
f 148/4/3 140/4/3 139/4/3
f 149/4/3 140/4/3 148/4/3
f 150/6/3 142/6/3 141/6/3
f 151/9/3 143/9/3 142/9/3
f 151/6/3 142/6/3 150/6/3
f 152/9/3 151/9/3 150/9/3
f 153/9/3 143/9/3 151/9/3
f 153/9/3 151/9/3 152/9/3
f 156/1/3 155/1/3 154/1/3
f 159/1/3 156/1/3 154/1/3
f 160/1/3 156/1/3 159/1/3
f 163/1/3 158/1/3 157/1/3
f 164/1/3 158/1/3 163/1/3
f 165/8/3 162/8/3 161/8/3
f 166/8/3 162/8/3 165/8/3
f 171/1/3 168/1/3 167/1/3
f 172/1/3 168/1/3 171/1/3
f 175/8/3 170/8/3 169/8/3
f 176/8/3 170/8/3 175/8/3
f 177/2/3 174/2/3 173/2/3
f 178/2/3 174/2/3 177/2/3
f 179/1/3 178/1/3 177/1/3
f 180/1/3 178/1/3 179/1/3
f 181/1/4 182/1/4 183/1/4
f 181/1/4 183/1/4 188/1/4
f 188/1/4 183/1/4 189/1/4
f 184/7/4 185/7/4 190/7/4
f 190/7/4 185/7/4 191/7/4
f 186/1/4 187/1/4 192/1/4
f 192/1/4 187/1/4 193/1/4
f 194/1/4 195/1/4 198/1/4
f 198/1/4 195/1/4 199/1/4
f 196/9/4 197/9/4 203/9/4
f 200/2/4 201/2/4 204/2/4
f 204/2/4 201/2/4 205/2/4
f 202/9/4 203/9/4 206/9/4
f 203/9/4 197/9/4 207/9/4
f 206/9/4 203/9/4 207/9/4
f 204/1/4 205/1/4 208/1/4
f 208/1/4 205/1/4 209/1/4
f 210/7/4 211/7/4 214/7/4
f 214/7/4 211/7/4 215/7/4
f 216/7/4 217/7/4 218/7/4
f 218/7/4 217/7/4 219/7/4
f 212/1/4 213/1/4 220/1/4
f 213/3/4 214/3/4 221/3/4
f 220/1/4 213/1/4 221/1/4
f 221/3/4 214/3/4 222/3/4
f 218/6/4 219/6/4 223/6/4
f 223/6/4 219/6/4 224/6/4
f 222/7/4 223/7/4 225/7/4
f 225/7/4 223/7/4 226/7/4
f 227/7/4 228/7/4 229/7/4
f 229/7/4 228/7/4 230/7/4
f 235/1/5 232/1/5 231/1/5
f 236/1/5 232/1/5 235/1/5
f 237/1/5 234/1/5 233/1/5
f 238/1/5 234/1/5 237/1/5
f 241/1/5 240/1/5 239/1/5
f 242/1/5 240/1/5 241/1/5
f 243/1/5 240/1/5 242/1/5
f 244/1/5 240/1/5 243/1/5
f 246/1/5 243/1/5 242/1/5
f 247/1/5 243/1/5 246/1/5
f 249/1/5 246/1/5 245/1/5
f 249/1/5 248/1/5 247/1/5
f 249/1/5 247/1/5 246/1/5
f 250/1/5 248/1/5 249/1/5
f 256/1/5 252/1/5 251/1/5
f 257/1/5 252/1/5 256/1/5
f 258/2/5 254/2/5 253/2/5
f 259/1/5 255/1/5 254/1/5
f 259/2/5 254/2/5 258/2/5
f 260/1/5 255/1/5 259/1/5
f 265/7/5 262/7/5 261/7/5
f 266/7/5 264/7/5 263/7/5
f 267/7/5 265/7/5 261/7/5
f 268/7/5 265/7/5 267/7/5
f 269/7/5 264/7/5 266/7/5
f 270/7/5 264/7/5 269/7/5
f 275/7/5 272/7/5 271/7/5
f 276/7/5 272/7/5 275/7/5
f 277/7/5 274/7/5 273/7/5
f 278/7/5 274/7/5 277/7/5
f 279/7/5 277/7/5 276/7/5
f 280/7/5 277/7/5 279/7/5
f 285/1/5 282/1/5 281/1/5
f 286/1/5 282/1/5 285/1/5
f 287/4/5 284/4/5 283/4/5
f 288/4/5 284/4/5 287/4/5
f 292/7/5 290/7/5 289/7/5
f 293/7/5 290/7/5 292/7/5
f 294/6/5 291/6/5 290/6/5
f 294/7/5 290/7/5 293/7/5
f 295/6/5 291/6/5 294/6/5
f 296/1/6 297/1/6 300/1/6
f 300/1/6 297/1/6 301/1/6
f 298/1/6 299/1/6 302/1/6
f 302/1/6 299/1/6 303/1/6
f 304/1/6 305/1/6 308/1/6
f 308/1/6 305/1/6 309/1/6
f 306/4/6 307/4/6 310/4/6
f 310/4/6 307/4/6 311/4/6
f 312/7/6 313/7/6 314/7/6
f 314/7/6 313/7/6 315/7/6
f 316/7/6 317/7/6 319/7/6
f 319/7/6 317/7/6 320/7/6
f 317/6/6 318/6/6 321/6/6
f 320/7/6 317/7/6 321/7/6
f 321/6/6 318/6/6 322/6/6
f 322/6/6 318/6/6 323/6/6
f 316/7/6 319/7/6 324/7/6
f 324/7/6 319/7/6 325/7/6
f 326/7/6 327/7/6 330/7/6
f 330/7/6 327/7/6 331/7/6
f 328/7/6 329/7/6 332/7/6
f 329/7/6 330/7/6 332/7/6
f 332/7/6 330/7/6 333/7/6
f 335/6/6 336/6/6 337/6/6
f 334/7/6 335/7/6 339/7/6
f 337/6/6 338/6/6 340/6/6
f 339/7/6 335/7/6 340/7/6
f 335/6/6 337/6/6 340/6/6
f 340/6/6 338/6/6 341/6/6
f 342/9/6 343/9/6 344/9/6
f 344/9/6 343/9/6 345/9/6
