# MagicaVoxel @ Ephtracy

# material
mtllib floor.mtl
usemtl palette

# normals
vn -1 0 0
vn 1 0 0
vn 0 0 1
vn 0 0 -1
vn 0 -1 0
vn 0 1 0

# texcoords
vt 0.154297 0.5
vt 0.455078 0.5

# verts
v -5 0 5
v -5 0 4
v -5 0 -5
v -5 9 5
v -5 9 4
v -5 10 4
v -5 10 -5
v 4 9 4
v 4 9 -5
v 4 10 4
v 4 10 -5
v 5 0 5
v 5 0 -5
v 5 9 5
v 5 9 -5
v -5 0 5
v -5 9 5
v 5 0 5
v 5 9 5
v -5 9 4
v -5 10 4
v 4 9 4
v 4 10 4
v -5 0 -5
v -5 10 -5
v 4 0 -5
v 4 9 -5
v 4 10 -5
v 5 0 -5
v 5 9 -5
v -5 0 5
v 5 0 5
v -5 0 4
v 4 0 4
v -5 0 -5
v 4 0 -5
v 5 0 -5
v -5 9 5
v 5 9 5
v -5 9 4
v 4 9 4
v 4 9 -5
v 5 9 -5
v -5 10 4
v 4 10 4
v -5 10 -5
v 4 10 -5

# faces
f 4/1/1 2/1/1 1/1/1
f 5/2/1 3/2/1 2/2/1
f 5/1/1 2/1/1 4/1/1
f 6/2/1 3/2/1 5/2/1
f 7/2/1 3/2/1 6/2/1
f 8/2/2 9/2/2 10/2/2
f 10/2/2 9/2/2 11/2/2
f 12/1/2 13/1/2 14/1/2
f 14/1/2 13/1/2 15/1/2
f 18/1/3 17/1/3 16/1/3
f 19/1/3 17/1/3 18/1/3
f 22/2/3 21/2/3 20/2/3
f 23/2/3 21/2/3 22/2/3
f 24/2/4 25/2/4 26/2/4
f 26/2/4 25/2/4 27/2/4
f 27/2/4 25/2/4 28/2/4
f 26/1/4 27/1/4 29/1/4
f 29/1/4 27/1/4 30/1/4
f 33/1/5 32/1/5 31/1/5
f 34/1/5 32/1/5 33/1/5
f 35/2/5 34/2/5 33/2/5
f 36/1/5 32/1/5 34/1/5
f 36/2/5 34/2/5 35/2/5
f 37/1/5 32/1/5 36/1/5
f 38/1/6 39/1/6 40/1/6
f 40/1/6 39/1/6 41/1/6
f 41/1/6 39/1/6 42/1/6
f 42/1/6 39/1/6 43/1/6
f 44/2/6 45/2/6 46/2/6
f 46/2/6 45/2/6 47/2/6
