# MagicaVoxel @ Ephtracy

# material
mtllib floor.mtl
usemtl palette

# normals
vn -1 0 0
vn 1 0 0
vn 0 0 1
vn 0 0 -1
vn 0 -1 0
vn 0 1 0

# texcoords
vt 0.701172 0.5
vt 0.708984 0.5

# verts
v -5 0 5
v -5 0 4
v -5 0 -5
v -5 9 5
v -5 9 4
v -5 10 4
v -5 10 -5
v 4 9 4
v 4 9 -5
v 4 10 4
v 4 10 -5
v 5 0 5
v 5 0 -5
v 5 9 5
v 5 9 -5
v -5 0 5
v -5 9 5
v 5 0 5
v 5 9 5
v -5 9 4
v -5 10 4
v 4 9 4
v 4 10 4
v -5 0 -5
v -5 10 -5
v 4 0 -5
v 4 9 -5
v 4 10 -5
v 5 0 -5
v 5 9 -5
v -5 0 5
v 5 0 5
v -5 0 4
v 4 0 4
v -5 0 -5
v 4 0 -5
v 5 0 -5
v -5 9 5
v 5 9 5
v -5 9 4
v 4 9 4
v 4 9 -5
v 5 9 -5
v -5 10 4
v 4 10 4
v -5 10 -5
v 4 10 -5

# faces
f 4/2/1 2/2/1 1/2/1
f 5/1/1 3/1/1 2/1/1
f 5/2/1 2/2/1 4/2/1
f 6/1/1 3/1/1 5/1/1
f 7/1/1 3/1/1 6/1/1
f 8/1/2 9/1/2 10/1/2
f 10/1/2 9/1/2 11/1/2
f 12/2/2 13/2/2 14/2/2
f 14/2/2 13/2/2 15/2/2
f 18/2/3 17/2/3 16/2/3
f 19/2/3 17/2/3 18/2/3
f 22/1/3 21/1/3 20/1/3
f 23/1/3 21/1/3 22/1/3
f 24/1/4 25/1/4 26/1/4
f 26/1/4 25/1/4 27/1/4
f 27/1/4 25/1/4 28/1/4
f 26/2/4 27/2/4 29/2/4
f 29/2/4 27/2/4 30/2/4
f 33/2/5 32/2/5 31/2/5
f 34/2/5 32/2/5 33/2/5
f 35/1/5 34/1/5 33/1/5
f 36/2/5 32/2/5 34/2/5
f 36/1/5 34/1/5 35/1/5
f 37/2/5 32/2/5 36/2/5
f 38/2/6 39/2/6 40/2/6
f 40/2/6 39/2/6 41/2/6
f 41/2/6 39/2/6 42/2/6
f 42/2/6 39/2/6 43/2/6
f 44/1/6 45/1/6 46/1/6
f 46/1/6 45/1/6 47/1/6
