# MagicaVoxel @ Ephtracy

# group
g health

# material
mtllib health.mtl
usemtl palette

# normals
vn -1 0 0
vn 1 0 0
vn 0 0 1
vn 0 0 -1
vn 0 -1 0
vn 0 1 0

# texcoords
vt 0.306641 0.5
vt 0.880859 0.5
vt 0.904297 0.5

# verts
v -10 0 10
v -10 0 -10
v -10 3 7
v -10 3 -7
v -10 17 7
v -10 17 -7
v -10 20 10
v -10 20 -10
v -9 3 7
v -9 3 -7
v -9 17 7
v -9 17 -7
v 7 0 7
v 7 0 -7
v 7 1 7
v 7 1 -7
v 7 3 10
v 7 3 9
v 7 3 -9
v 7 3 -10
v 7 17 10
v 7 17 9
v 7 17 -9
v 7 17 -10
v 7 19 7
v 7 19 -7
v 7 20 7
v 7 20 -7
v -7 0 7
v -7 0 -7
v -7 1 7
v -7 1 -7
v -7 3 10
v -7 3 9
v -7 3 -9
v -7 3 -10
v -7 17 10
v -7 17 9
v -7 17 -9
v -7 17 -10
v -7 19 7
v -7 19 -7
v -7 20 7
v -7 20 -7
v 9 3 7
v 9 3 -7
v 9 17 7
v 9 17 -7
v 9 18 7
v 9 18 -7
v 10 0 10
v 10 0 -10
v 10 3 7
v 10 3 -7
v 10 18 7
v 10 18 -7
v 10 20 10
v 10 20 -10
v -10 0 10
v -10 20 10
v -7 3 10
v -7 17 10
v 7 3 10
v 7 17 10
v 10 0 10
v 10 20 10
v -7 3 9
v -7 17 9
v 7 3 9
v 7 17 9
v -10 3 -7
v -10 17 -7
v -9 3 -7
v -9 17 -7
v -7 0 -7
v -7 1 -7
v -7 19 -7
v -7 20 -7
v 7 0 -7
v 7 1 -7
v 7 19 -7
v 7 20 -7
v 9 3 -7
v 9 17 -7
v 9 18 -7
v 10 3 -7
v 10 18 -7
v -10 3 7
v -10 17 7
v -9 3 7
v -9 17 7
v -7 0 7
v -7 1 7
v -7 19 7
v -7 20 7
v 7 0 7
v 7 1 7
v 7 19 7
v 7 20 7
v 9 3 7
v 9 17 7
v 9 18 7
v 10 3 7
v 10 18 7
v -7 3 -9
v -7 17 -9
v 7 3 -9
v 7 17 -9
v -10 0 -10
v -10 20 -10
v -7 3 -10
v -7 17 -10
v 7 3 -10
v 7 17 -10
v 10 0 -10
v 10 20 -10
v -10 0 10
v 10 0 10
v -7 0 7
v 7 0 7
v -7 0 -7
v 7 0 -7
v -10 0 -10
v 10 0 -10
v -7 1 7
v 7 1 7
v -7 1 -7
v 7 1 -7
v -7 17 10
v 7 17 10
v -7 17 9
v 7 17 9
v -10 17 7
v -9 17 7
v -10 17 -7
v -9 17 -7
v -7 17 -9
v 7 17 -9
v -7 17 -10
v 7 17 -10
v 9 18 7
v 10 18 7
v 9 18 -7
v 10 18 -7
v -7 3 10
v 7 3 10
v -7 3 9
v 7 3 9
v -10 3 7
v -9 3 7
v 9 3 7
v 10 3 7
v -10 3 -7
v -9 3 -7
v 9 3 -7
v 10 3 -7
v -7 3 -9
v 7 3 -9
v -7 3 -10
v 7 3 -10
v -7 19 7
v 7 19 7
v -7 19 -7
v 7 19 -7
v -10 20 10
v 10 20 10
v -7 20 7
v 7 20 7
v -7 20 -7
v 7 20 -7
v -10 20 -10
v 10 20 -10

# faces
f 3/3/1 2/3/1 1/3/1
f 4/3/1 2/3/1 3/3/1
f 5/3/1 3/3/1 1/3/1
f 6/3/1 2/3/1 4/3/1
f 7/3/1 5/3/1 1/3/1
f 7/3/1 6/3/1 5/3/1
f 8/3/1 2/3/1 6/3/1
f 8/3/1 6/3/1 7/3/1
f 11/2/1 10/2/1 9/2/1
f 12/2/1 10/2/1 11/2/1
f 15/3/1 14/3/1 13/3/1
f 16/3/1 14/3/1 15/3/1
f 21/3/1 18/3/1 17/3/1
f 22/3/1 18/3/1 21/3/1
f 23/3/1 20/3/1 19/3/1
f 24/3/1 20/3/1 23/3/1
f 27/3/1 26/3/1 25/3/1
f 28/3/1 26/3/1 27/3/1
f 29/3/2 30/3/2 31/3/2
f 31/3/2 30/3/2 32/3/2
f 33/3/2 34/3/2 37/3/2
f 37/3/2 34/3/2 38/3/2
f 35/3/2 36/3/2 39/3/2
f 39/3/2 36/3/2 40/3/2
f 41/3/2 42/3/2 43/3/2
f 43/3/2 42/3/2 44/3/2
f 45/2/2 46/2/2 47/2/2
f 47/2/2 46/2/2 48/2/2
f 47/3/2 48/3/2 49/3/2
f 49/3/2 48/3/2 50/3/2
f 51/3/2 52/3/2 53/3/2
f 53/3/2 52/3/2 54/3/2
f 51/3/2 53/3/2 55/3/2
f 54/3/2 52/3/2 56/3/2
f 51/3/2 55/3/2 57/3/2
f 55/3/2 56/3/2 57/3/2
f 56/3/2 52/3/2 58/3/2
f 57/3/2 56/3/2 58/3/2
f 61/3/3 60/3/3 59/3/3
f 62/3/3 60/3/3 61/3/3
f 63/3/3 61/3/3 59/3/3
f 64/3/3 60/3/3 62/3/3
f 65/3/3 63/3/3 59/3/3
f 65/3/3 64/3/3 63/3/3
f 66/3/3 60/3/3 64/3/3
f 66/3/3 64/3/3 65/3/3
f 69/2/3 68/2/3 67/2/3
f 70/2/3 68/2/3 69/2/3
f 73/3/3 72/3/3 71/3/3
f 74/3/3 72/3/3 73/3/3
f 79/3/3 76/3/3 75/3/3
f 80/3/3 76/3/3 79/3/3
f 81/3/3 78/3/3 77/3/3
f 82/3/3 78/3/3 81/3/3
f 86/3/3 84/3/3 83/3/3
f 86/3/3 85/3/3 84/3/3
f 87/3/3 85/3/3 86/3/3
f 88/3/4 89/3/4 90/3/4
f 90/3/4 89/3/4 91/3/4
f 92/3/4 93/3/4 96/3/4
f 96/3/4 93/3/4 97/3/4
f 94/3/4 95/3/4 98/3/4
f 98/3/4 95/3/4 99/3/4
f 100/3/4 101/3/4 103/3/4
f 101/3/4 102/3/4 103/3/4
f 103/3/4 102/3/4 104/3/4
f 105/2/4 106/2/4 107/2/4
f 107/2/4 106/2/4 108/2/4
f 109/3/4 110/3/4 111/3/4
f 111/3/4 110/3/4 112/3/4
f 109/3/4 111/3/4 113/3/4
f 112/3/4 110/3/4 114/3/4
f 109/3/4 113/3/4 115/3/4
f 113/3/4 114/3/4 115/3/4
f 114/3/4 110/3/4 116/3/4
f 115/3/4 114/3/4 116/3/4
f 119/3/5 118/3/5 117/3/5
f 120/3/5 118/3/5 119/3/5
f 121/3/5 119/3/5 117/3/5
f 122/3/5 118/3/5 120/3/5
f 123/3/5 121/3/5 117/3/5
f 123/3/5 122/3/5 121/3/5
f 124/3/5 118/3/5 122/3/5
f 124/3/5 122/3/5 123/3/5
f 127/2/5 126/2/5 125/2/5
f 128/2/5 126/2/5 127/2/5
f 131/3/5 130/3/5 129/3/5
f 132/3/5 130/3/5 131/3/5
f 135/3/5 134/3/5 133/3/5
f 136/3/5 134/3/5 135/3/5
f 139/3/5 138/3/5 137/3/5
f 140/3/5 138/3/5 139/3/5
f 143/3/5 142/3/5 141/3/5
f 144/3/5 142/3/5 143/3/5
f 145/3/6 146/3/6 147/3/6
f 147/3/6 146/3/6 148/3/6
f 149/3/6 150/3/6 153/3/6
f 153/3/6 150/3/6 154/3/6
f 151/3/6 152/3/6 155/3/6
f 155/3/6 152/3/6 156/3/6
f 157/3/6 158/3/6 159/3/6
f 159/3/6 158/3/6 160/3/6
f 161/2/6 162/2/6 163/2/6
f 163/2/6 162/2/6 164/2/6
f 165/3/6 166/3/6 167/3/6
f 167/3/6 166/3/6 168/3/6
f 165/3/6 167/3/6 169/3/6
f 168/3/6 166/3/6 170/3/6
f 165/3/6 169/3/6 171/3/6
f 169/3/6 170/3/6 171/3/6
f 170/3/6 166/3/6 172/3/6
f 171/3/6 170/3/6 172/3/6
