# MagicaVoxel @ Ephtracy

# material
mtllib wall_2.mtl
usemtl palette

# normals
vn -1 0 0
vn 1 0 0
vn 0 0 1
vn 0 0 -1
vn 0 -1 0
vn 0 1 0

# texcoords
vt 0.0292969 0.5
vt 0.154297 0.5

# verts
v -5 0 5
v -5 0 4
v -5 0 -5
v -5 9 5
v -5 9 4
v -5 9 3
v -5 19 3
v -5 19 -5
v -4 9 4
v -4 9 3
v -4 19 4
v -4 19 3
v -4 19 -4
v -4 20 3
v -4 20 -4
v 3 9 4
v 3 9 3
v 3 9 -4
v 3 9 -5
v 3 19 4
v 3 19 3
v 3 19 -4
v 3 19 -5
v 3 20 3
v 3 20 -4
v 4 9 3
v 4 9 -4
v 4 19 3
v 4 19 -4
v 5 0 5
v 5 0 -5
v 5 9 5
v 5 9 -5
v -5 0 5
v -5 9 5
v 5 0 5
v 5 9 5
v -4 9 4
v -4 19 4
v 3 9 4
v 3 19 4
v -5 9 3
v -5 19 3
v -4 9 3
v -4 19 3
v -4 20 3
v 3 9 3
v 3 19 3
v 3 20 3
v 4 9 3
v 4 19 3
v -4 19 -4
v -4 20 -4
v 3 9 -4
v 3 19 -4
v 3 20 -4
v 4 9 -4
v 4 19 -4
v -5 0 -5
v -5 19 -5
v 3 9 -5
v 3 19 -5
v 4 0 -5
v 4 9 -5
v 5 0 -5
v 5 9 -5
v -5 0 5
v 5 0 5
v -5 0 4
v 4 0 4
v -5 0 -5
v 4 0 -5
v 5 0 -5
v -5 9 5
v 5 9 5
v -5 9 4
v -4 9 4
v 3 9 4
v -5 9 3
v -4 9 3
v 3 9 3
v 4 9 3
v 3 9 -4
v 4 9 -4
v 3 9 -5
v 4 9 -5
v 5 9 -5
v -4 19 4
v 3 19 4
v -5 19 3
v -4 19 3
v 3 19 3
v 4 19 3
v -4 19 -4
v 3 19 -4
v 4 19 -4
v -5 19 -5
v 3 19 -5
v -4 20 3
v 3 20 3
v -4 20 -4
v 3 20 -4

# faces
f 4/1/1 2/1/1 1/1/1
f 5/2/1 3/2/1 2/2/1
f 5/1/1 2/1/1 4/1/1
f 6/2/1 3/2/1 5/2/1
f 7/2/1 3/2/1 6/2/1
f 8/2/1 3/2/1 7/2/1
f 11/2/1 10/2/1 9/2/1
f 12/2/1 10/2/1 11/2/1
f 14/2/1 13/2/1 12/2/1
f 15/2/1 13/2/1 14/2/1
f 16/2/2 17/2/2 20/2/2
f 20/2/2 17/2/2 21/2/2
f 18/2/2 19/2/2 22/2/2
f 22/2/2 19/2/2 23/2/2
f 21/2/2 22/2/2 24/2/2
f 24/2/2 22/2/2 25/2/2
f 26/2/2 27/2/2 28/2/2
f 28/2/2 27/2/2 29/2/2
f 30/1/2 31/1/2 32/1/2
f 32/1/2 31/1/2 33/1/2
f 36/1/3 35/1/3 34/1/3
f 37/1/3 35/1/3 36/1/3
f 40/2/3 39/2/3 38/2/3
f 41/2/3 39/2/3 40/2/3
f 44/2/3 43/2/3 42/2/3
f 45/2/3 43/2/3 44/2/3
f 48/2/3 46/2/3 45/2/3
f 49/2/3 46/2/3 48/2/3
f 50/2/3 48/2/3 47/2/3
f 51/2/3 48/2/3 50/2/3
f 52/2/4 53/2/4 55/2/4
f 55/2/4 53/2/4 56/2/4
f 54/2/4 55/2/4 57/2/4
f 57/2/4 55/2/4 58/2/4
f 59/2/4 60/2/4 61/2/4
f 61/2/4 60/2/4 62/2/4
f 59/2/4 61/2/4 63/2/4
f 63/2/4 61/2/4 64/2/4
f 63/1/4 64/1/4 65/1/4
f 65/1/4 64/1/4 66/1/4
f 69/1/5 68/1/5 67/1/5
f 70/1/5 68/1/5 69/1/5
f 71/2/5 70/2/5 69/2/5
f 72/1/5 68/1/5 70/1/5
f 72/2/5 70/2/5 71/2/5
f 73/1/5 68/1/5 72/1/5
f 74/1/6 75/1/6 76/1/6
f 76/1/6 75/1/6 77/1/6
f 77/1/6 75/1/6 78/1/6
f 76/2/6 77/2/6 79/2/6
f 79/2/6 77/2/6 80/2/6
f 78/1/6 75/1/6 81/1/6
f 81/1/6 75/1/6 82/1/6
f 82/1/6 75/1/6 84/1/6
f 83/2/6 84/2/6 85/2/6
f 84/1/6 75/1/6 86/1/6
f 85/2/6 84/2/6 86/2/6
f 86/1/6 75/1/6 87/1/6
f 88/2/6 89/2/6 91/2/6
f 91/2/6 89/2/6 92/2/6
f 90/2/6 91/2/6 94/2/6
f 92/2/6 93/2/6 95/2/6
f 95/2/6 93/2/6 96/2/6
f 90/2/6 94/2/6 97/2/6
f 94/2/6 95/2/6 97/2/6
f 97/2/6 95/2/6 98/2/6
f 99/2/6 100/2/6 101/2/6
f 101/2/6 100/2/6 102/2/6
