# MagicaVoxel @ Ephtracy

# material
mtllib wall_0.mtl
usemtl palette

# normals
vn -1 0 0
vn 1 0 0
vn 0 0 1
vn 0 0 -1
vn 0 -1 0
vn 0 1 0

# texcoords
vt 0.0292969 0.5
vt 0.154297 0.5

# verts
v -5 0 5
v -5 0 -5
v -5 19 5
v -5 19 -5
v -4 19 4
v -4 19 -4
v -4 20 4
v -4 20 -4
v 3 9 5
v 3 9 4
v 3 19 5
v 3 19 4
v 3 19 3
v 3 20 4
v 3 20 3
v 4 9 4
v 4 9 3
v 4 19 4
v 4 19 3
v 4 19 -4
v 4 20 3
v 4 20 -4
v 5 0 5
v 5 0 3
v 5 0 -5
v 5 9 5
v 5 9 3
v 5 19 3
v 5 19 -5
v -5 0 5
v -5 19 5
v 3 0 5
v 3 9 5
v 3 19 5
v 5 0 5
v 5 9 5
v -4 19 4
v -4 20 4
v 3 9 4
v 3 19 4
v 3 20 4
v 4 9 4
v 4 19 4
v 3 19 3
v 3 20 3
v 4 9 3
v 4 19 3
v 4 20 3
v 5 9 3
v 5 19 3
v -4 19 -4
v -4 20 -4
v 4 19 -4
v 4 20 -4
v -5 0 -5
v -5 19 -5
v 5 0 -5
v 5 19 -5
v -5 0 5
v 3 0 5
v 5 0 5
v 3 0 4
v 4 0 4
v 4 0 3
v 5 0 3
v -5 0 -5
v 5 0 -5
v 3 9 5
v 5 9 5
v 3 9 4
v 4 9 4
v 4 9 3
v 5 9 3
v -5 19 5
v 3 19 5
v -4 19 4
v 3 19 4
v 4 19 4
v 3 19 3
v 4 19 3
v 5 19 3
v -4 19 -4
v 4 19 -4
v -5 19 -5
v 5 19 -5
v -4 20 4
v 3 20 4
v 3 20 3
v 4 20 3
v -4 20 -4
v 4 20 -4

# faces
f 3/2/1 2/2/1 1/2/1
f 4/2/1 2/2/1 3/2/1
f 7/2/1 6/2/1 5/2/1
f 8/2/1 6/2/1 7/2/1
f 9/2/2 10/2/2 11/2/2
f 11/2/2 10/2/2 12/2/2
f 12/2/2 13/2/2 14/2/2
f 14/2/2 13/2/2 15/2/2
f 16/2/2 17/2/2 18/2/2
f 18/2/2 17/2/2 19/2/2
f 19/2/2 20/2/2 21/2/2
f 21/2/2 20/2/2 22/2/2
f 23/1/2 24/1/2 26/1/2
f 24/2/2 25/2/2 27/2/2
f 26/1/2 24/1/2 27/1/2
f 27/2/2 25/2/2 28/2/2
f 28/2/2 25/2/2 29/2/2
f 32/2/3 31/2/3 30/2/3
f 33/2/3 31/2/3 32/2/3
f 34/2/3 31/2/3 33/2/3
f 35/1/3 33/1/3 32/1/3
f 36/1/3 33/1/3 35/1/3
f 40/2/3 38/2/3 37/2/3
f 41/2/3 38/2/3 40/2/3
f 42/2/3 40/2/3 39/2/3
f 43/2/3 40/2/3 42/2/3
f 47/2/3 45/2/3 44/2/3
f 48/2/3 45/2/3 47/2/3
f 49/2/3 47/2/3 46/2/3
f 50/2/3 47/2/3 49/2/3
f 51/2/4 52/2/4 53/2/4
f 53/2/4 52/2/4 54/2/4
f 55/2/4 56/2/4 57/2/4
f 57/2/4 56/2/4 58/2/4
f 62/2/5 60/2/5 59/2/5
f 62/1/5 61/1/5 60/1/5
f 63/1/5 61/1/5 62/1/5
f 64/2/5 63/2/5 62/2/5
f 64/1/5 61/1/5 63/1/5
f 65/1/5 61/1/5 64/1/5
f 66/2/5 62/2/5 59/2/5
f 66/2/5 64/2/5 62/2/5
f 66/2/5 65/2/5 64/2/5
f 67/2/5 65/2/5 66/2/5
f 68/1/6 69/1/6 70/1/6
f 70/1/6 69/1/6 71/1/6
f 71/1/6 69/1/6 72/1/6
f 72/1/6 69/1/6 73/1/6
f 74/2/6 75/2/6 76/2/6
f 76/2/6 75/2/6 77/2/6
f 77/2/6 78/2/6 79/2/6
f 79/2/6 78/2/6 80/2/6
f 74/2/6 76/2/6 82/2/6
f 80/2/6 81/2/6 83/2/6
f 74/2/6 82/2/6 84/2/6
f 82/2/6 83/2/6 84/2/6
f 83/2/6 81/2/6 85/2/6
f 84/2/6 83/2/6 85/2/6
f 86/2/6 87/2/6 88/2/6
f 86/2/6 88/2/6 90/2/6
f 88/2/6 89/2/6 90/2/6
f 90/2/6 89/2/6 91/2/6
