# MagicaVoxel @ Ephtracy

# material
mtllib pistol.mtl
usemtl palette

# normals
vn -1 0 0
vn 1 0 0
vn 0 0 1
vn 0 0 -1
vn 0 -1 0
vn 0 1 0

# texcoords
vt 0.0214844 0.5
vt 0.376953 0.5
vt 0.830078 0.5

# verts
v -1.5 0 2.5
v -1.5 0 1.5
v -1.5 0 0.5
v -1.5 0 -2.5
v -1.5 3 0.5
v -1.5 3 -2.5
v -1.5 4 2.5
v -1.5 4 1.5
v -1.5 4 0.5
v -1.5 4 -2.5
v 1.5 0 2.5
v 1.5 0 1.5
v 1.5 0 0.5
v 1.5 0 -2.5
v 1.5 3 0.5
v 1.5 3 -2.5
v 1.5 4 2.5
v 1.5 4 1.5
v 1.5 4 0.5
v 1.5 4 -2.5
v -1.5 0 2.5
v -1.5 4 2.5
v -0.5 1 2.5
v -0.5 3 2.5
v 0.5 1 2.5
v 0.5 3 2.5
v 1.5 0 2.5
v 1.5 4 2.5
v -1.5 0 -2.5
v -1.5 3 -2.5
v -1.5 4 -2.5
v 1.5 0 -2.5
v 1.5 3 -2.5
v 1.5 4 -2.5
v -1.5 0 2.5
v 1.5 0 2.5
v -1.5 0 1.5
v 1.5 0 1.5
v -1.5 0 0.5
v 1.5 0 0.5
v -1.5 0 -2.5
v 1.5 0 -2.5
v -1.5 4 2.5
v 1.5 4 2.5
v -1.5 4 1.5
v 1.5 4 1.5
v -1.5 4 0.5
v 1.5 4 0.5
v -1.5 4 -2.5
v 1.5 4 -2.5

# faces
f 5/1/1 3/1/1 2/1/1
f 5/3/1 4/3/1 3/3/1
f 6/3/1 4/3/1 5/3/1
f 7/2/1 2/2/1 1/2/1
f 8/1/1 5/1/1 2/1/1
f 8/2/1 2/2/1 7/2/1
f 9/2/1 6/2/1 5/2/1
f 9/1/1 5/1/1 8/1/1
f 10/2/1 6/2/1 9/2/1
f 12/1/2 13/1/2 15/1/2
f 13/3/2 14/3/2 15/3/2
f 15/3/2 14/3/2 16/3/2
f 11/2/2 12/2/2 17/2/2
f 12/1/2 15/1/2 18/1/2
f 17/2/2 12/2/2 18/2/2
f 15/2/2 16/2/2 19/2/2
f 18/1/2 15/1/2 19/1/2
f 19/2/2 16/2/2 20/2/2
f 23/2/3 22/2/3 21/2/3
f 24/2/3 22/2/3 23/2/3
f 25/2/3 23/2/3 21/2/3
f 25/1/3 24/1/3 23/1/3
f 26/2/3 22/2/3 24/2/3
f 26/1/3 24/1/3 25/1/3
f 27/2/3 25/2/3 21/2/3
f 27/2/3 26/2/3 25/2/3
f 28/2/3 22/2/3 26/2/3
f 28/2/3 26/2/3 27/2/3
f 29/3/4 30/3/4 32/3/4
f 30/2/4 31/2/4 33/2/4
f 32/3/4 30/3/4 33/3/4
f 33/2/4 31/2/4 34/2/4
f 37/2/5 36/2/5 35/2/5
f 38/2/5 36/2/5 37/2/5
f 39/1/5 38/1/5 37/1/5
f 40/1/5 38/1/5 39/1/5
f 41/3/5 40/3/5 39/3/5
f 42/3/5 40/3/5 41/3/5
f 43/2/6 44/2/6 45/2/6
f 45/2/6 44/2/6 46/2/6
f 45/1/6 46/1/6 47/1/6
f 47/1/6 46/1/6 48/1/6
f 47/2/6 48/2/6 49/2/6
f 49/2/6 48/2/6 50/2/6
