# MagicaVoxel @ Ephtracy

# material
mtllib player_head.mtl
usemtl palette

# normals
vn -1 0 0
vn 1 0 0
vn 0 0 1
vn 0 0 -1
vn 0 -1 0
vn 0 1 0

# texcoords
vt 0.0214844 0.5
vt 0.0605469 0.5
vt 0.384766 0.5
vt 0.501953 0.5
vt 0.533203 0.5
vt 0.978516 0.5

# verts
v -4 0 1.5
v -4 0 -1.5
v -4 4 1.5
v -4 4 -1.5
v -3 0 3.5
v -3 0 1.5
v -3 1 -1.5
v -3 1 -2.5
v -3 2 3.5
v -3 2 2.5
v -3 4 1.5
v -3 4 -1.5
v -3 4 -2.5
v -3 5 2.5
v -3 5 -1.5
v -2 0 -1.5
v -2 0 -2.5
v -2 1 -1.5
v -2 1 -2.5
v -2 1 -3.5
v -2 4 -1.5
v -2 4 -2.5
v -2 4 -3.5
v -2 5 1.5
v -2 5 -1.5
v -2 5 -2.5
v -2 6 1.5
v -2 6 -1.5
v 0 3 3.5
v 0 3 2.5
v 0 4 3.5
v 0 4 2.5
v 2 0 3.5
v 2 0 2.5
v 2 1 2.5
v 2 2 2.5
v 2 3 3.5
v 2 3 2.5
v -2 0 3.5
v -2 0 2.5
v -2 1 2.5
v -2 2 3.5
v -2 2 2.5
v 2 0 -1.5
v 2 0 -2.5
v 2 1 -1.5
v 2 1 -2.5
v 2 1 -3.5
v 2 4 2.5
v 2 4 1.5
v 2 4 -1.5
v 2 4 -2.5
v 2 4 -3.5
v 2 5 2.5
v 2 5 1.5
v 2 5 -0.5
v 2 5 -1.5
v 2 5 -2.5
v 2 6 -0.5
v 2 6 -1.5
v 3 0 3.5
v 3 0 2.5
v 3 1 -1.5
v 3 1 -2.5
v 3 4 3.5
v 3 4 2.5
v 3 4 1.5
v 3 4 -0.5
v 3 4 -1.5
v 3 4 -2.5
v 3 5 -0.5
v 3 5 -1.5
v 3 6 1.5
v 3 6 -0.5
v 4 0 2.5
v 4 0 -1.5
v 4 4 2.5
v 4 4 -1.5
v -3 0 3.5
v -3 2 3.5
v -2 0 3.5
v -2 2 3.5
v 0 3 3.5
v 0 4 3.5
v 2 0 3.5
v 2 3 3.5
v 3 0 3.5
v 3 4 3.5
v -3 2 2.5
v -3 5 2.5
v -2 0 2.5
v -2 1 2.5
v -2 2 2.5
v -2 3 2.5
v -2 4 2.5
v -1 2 2.5
v -1 3 2.5
v -1 4 2.5
v 0 1 2.5
v 0 2 2.5
v 0 3 2.5
v 0 4 2.5
v 1 2 2.5
v 1 3 2.5
v 2 0 2.5
v 2 1 2.5
v 2 2 2.5
v 2 3 2.5
v 2 4 2.5
v 2 5 2.5
v 3 0 2.5
v 3 4 2.5
v 4 0 2.5
v 4 4 2.5
v -4 0 1.5
v -4 4 1.5
v -3 0 1.5
v -3 4 1.5
v -2 5 1.5
v -2 6 1.5
v 1 5 1.5
v 1 6 1.5
v 2 4 1.5
v 2 5 1.5
v 3 4 1.5
v 3 6 1.5
v 2 5 -0.5
v 2 6 -0.5
v 3 5 -0.5
v 3 6 -0.5
v -4 0 -1.5
v -4 4 -1.5
v -3 1 -1.5
v -3 4 -1.5
v -3 5 -1.5
v -2 0 -1.5
v -2 1 -1.5
v -2 4 -1.5
v -2 5 -1.5
v -2 6 -1.5
v 2 0 -1.5
v 2 1 -1.5
v 2 4 -1.5
v 2 5 -1.5
v 2 6 -1.5
v 3 1 -1.5
v 3 4 -1.5
v 3 5 -1.5
v 4 0 -1.5
v 4 4 -1.5
v -3 1 -2.5
v -3 4 -2.5
v -2 0 -2.5
v -2 1 -2.5
v -2 4 -2.5
v -2 5 -2.5
v 2 0 -2.5
v 2 1 -2.5
v 2 4 -2.5
v 2 5 -2.5
v 3 1 -2.5
v 3 4 -2.5
v -2 1 -3.5
v -2 4 -3.5
v 2 1 -3.5
v 2 4 -3.5
v -3 0 3.5
v -2 0 3.5
v 2 0 3.5
v 3 0 3.5
v -2 0 2.5
v 2 0 2.5
v 3 0 2.5
v 4 0 2.5
v -4 0 1.5
v -3 0 1.5
v -2 0 -0.5
v -1 0 -0.5
v 1 0 -0.5
v 2 0 -0.5
v -4 0 -1.5
v -2 0 -1.5
v -1 0 -1.5
v 1 0 -1.5
v 2 0 -1.5
v 4 0 -1.5
v -2 0 -2.5
v 2 0 -2.5
v -3 1 -1.5
v -2 1 -1.5
v 2 1 -1.5
v 3 1 -1.5
v -3 1 -2.5
v -2 1 -2.5
v 2 1 -2.5
v 3 1 -2.5
v -2 1 -3.5
v 2 1 -3.5
v 0 3 3.5
v 2 3 3.5
v 0 3 2.5
v 1 3 2.5
v 2 3 2.5
v -3 2 3.5
v -2 2 3.5
v -3 2 2.5
v -2 2 2.5
v 0 4 3.5
v 3 4 3.5
v 0 4 2.5
v 2 4 2.5
v 3 4 2.5
v 4 4 2.5
v -4 4 1.5
v -3 4 1.5
v 2 4 1.5
v 3 4 1.5
v 3 4 -0.5
v -4 4 -1.5
v -3 4 -1.5
v -2 4 -1.5
v 2 4 -1.5
v 3 4 -1.5
v 4 4 -1.5
v -3 4 -2.5
v -2 4 -2.5
v 2 4 -2.5
v 3 4 -2.5
v -2 4 -3.5
v 2 4 -3.5
v -3 5 2.5
v 2 5 2.5
v -2 5 1.5
v 1 5 1.5
v 2 5 1.5
v 2 5 -0.5
v 3 5 -0.5
v -3 5 -1.5
v -2 5 -1.5
v 2 5 -1.5
v 3 5 -1.5
v -2 5 -2.5
v 2 5 -2.5
v -2 6 1.5
v 1 6 1.5
v 3 6 1.5
v 1 6 -0.5
v 2 6 -0.5
v 3 6 -0.5
v -2 6 -1.5
v 2 6 -1.5

# faces
f 3/3/1 2/3/1 1/3/1
f 4/3/1 2/3/1 3/3/1
f 9/3/1 6/3/1 5/3/1
f 10/3/1 6/3/1 9/3/1
f 11/3/1 6/3/1 10/3/1
f 12/3/1 8/3/1 7/3/1
f 13/3/1 8/3/1 12/3/1
f 14/3/1 11/3/1 10/3/1
f 14/3/1 12/3/1 11/3/1
f 15/3/1 12/3/1 14/3/1
f 18/3/1 17/3/1 16/3/1
f 19/3/1 17/3/1 18/3/1
f 22/3/1 20/3/1 19/3/1
f 23/3/1 20/3/1 22/3/1
f 25/3/1 22/3/1 21/3/1
f 26/3/1 22/3/1 25/3/1
f 27/3/1 25/3/1 24/3/1
f 28/3/1 25/3/1 27/3/1
f 31/3/1 30/3/1 29/3/1
f 32/3/1 30/3/1 31/3/1
f 35/3/1 34/3/1 33/3/1
f 36/3/1 35/3/1 33/3/1
f 37/3/1 36/3/1 33/3/1
f 38/3/1 36/3/1 37/3/1
f 39/3/2 40/3/2 41/3/2
f 39/3/2 41/3/2 42/3/2
f 42/3/2 41/3/2 43/3/2
f 44/3/2 45/3/2 46/3/2
f 46/3/2 45/3/2 47/3/2
f 47/3/2 48/3/2 52/3/2
f 52/3/2 48/3/2 53/3/2
f 49/3/2 50/3/2 54/3/2
f 54/3/2 50/3/2 55/3/2
f 51/3/2 52/3/2 57/3/2
f 57/3/2 52/3/2 58/3/2
f 56/3/2 57/3/2 59/3/2
f 59/3/2 57/3/2 60/3/2
f 61/3/2 62/3/2 65/3/2
f 65/3/2 62/3/2 66/3/2
f 63/3/2 64/3/2 69/3/2
f 69/3/2 64/3/2 70/3/2
f 67/1/2 68/1/2 71/1/2
f 68/3/2 69/3/2 71/3/2
f 71/3/2 69/3/2 72/3/2
f 67/1/2 71/1/2 73/1/2
f 73/1/2 71/1/2 74/1/2
f 75/3/2 76/3/2 77/3/2
f 77/3/2 76/3/2 78/3/2
f 81/3/3 80/3/3 79/3/3
f 82/3/3 80/3/3 81/3/3
f 86/3/3 84/3/3 83/3/3
f 87/3/3 86/3/3 85/3/3
f 88/3/3 84/3/3 86/3/3
f 88/3/3 86/3/3 87/3/3
f 93/3/3 90/3/3 89/3/3
f 94/3/3 90/3/3 93/3/3
f 95/3/3 90/3/3 94/3/3
f 96/5/3 93/5/3 92/5/3
f 96/2/3 94/2/3 93/2/3
f 97/4/3 95/4/3 94/4/3
f 97/2/3 94/2/3 96/2/3
f 98/3/3 90/3/3 95/3/3
f 98/4/3 95/4/3 97/4/3
f 99/6/3 92/6/3 91/6/3
f 99/5/3 96/5/3 92/5/3
f 100/4/3 97/4/3 96/4/3
f 100/5/3 96/5/3 99/5/3
f 101/3/3 98/3/3 97/3/3
f 101/4/3 97/4/3 100/4/3
f 102/3/3 90/3/3 98/3/3
f 102/3/3 98/3/3 101/3/3
f 103/4/3 101/4/3 100/4/3
f 103/4/3 100/4/3 99/4/3
f 104/4/3 101/4/3 103/4/3
f 105/6/3 99/6/3 91/6/3
f 106/4/3 103/4/3 99/4/3
f 106/6/3 99/6/3 105/6/3
f 107/2/3 104/2/3 103/2/3
f 107/4/3 103/4/3 106/4/3
f 108/2/3 104/2/3 107/2/3
f 109/3/3 90/3/3 102/3/3
f 110/3/3 90/3/3 109/3/3
f 113/3/3 112/3/3 111/3/3
f 114/3/3 112/3/3 113/3/3
f 117/3/3 116/3/3 115/3/3
f 118/3/3 116/3/3 117/3/3
f 121/3/3 120/3/3 119/3/3
f 122/3/3 120/3/3 121/3/3
f 124/1/3 122/1/3 121/1/3
f 125/1/3 124/1/3 123/1/3
f 126/1/3 122/1/3 124/1/3
f 126/1/3 124/1/3 125/1/3
f 127/1/4 128/1/4 129/1/4
f 129/1/4 128/1/4 130/1/4
f 131/3/4 132/3/4 133/3/4
f 133/3/4 132/3/4 134/3/4
f 131/3/4 133/3/4 136/3/4
f 136/3/4 133/3/4 137/3/4
f 134/3/4 135/3/4 138/3/4
f 138/3/4 135/3/4 139/3/4
f 139/3/4 140/3/4 144/3/4
f 144/3/4 140/3/4 145/3/4
f 141/3/4 142/3/4 146/3/4
f 143/3/4 144/3/4 147/3/4
f 147/3/4 144/3/4 148/3/4
f 141/3/4 146/3/4 149/3/4
f 146/3/4 147/3/4 149/3/4
f 149/3/4 147/3/4 150/3/4
f 151/3/4 152/3/4 154/3/4
f 154/3/4 152/3/4 155/3/4
f 153/3/4 154/3/4 157/3/4
f 157/3/4 154/3/4 158/3/4
f 155/3/4 156/3/4 159/3/4
f 159/3/4 156/3/4 160/3/4
f 158/3/4 159/3/4 161/3/4
f 161/3/4 159/3/4 162/3/4
f 163/3/4 164/3/4 165/3/4
f 165/3/4 164/3/4 166/3/4
f 171/3/5 168/3/5 167/3/5
f 172/3/5 170/3/5 169/3/5
f 173/3/5 170/3/5 172/3/5
f 176/3/5 171/3/5 167/3/5
f 177/6/5 172/6/5 171/6/5
f 177/3/5 176/3/5 175/3/5
f 177/3/5 171/3/5 176/3/5
f 178/6/5 172/6/5 177/6/5
f 179/6/5 172/6/5 178/6/5
f 180/3/5 174/3/5 173/3/5
f 180/6/5 172/6/5 179/6/5
f 180/3/5 173/3/5 172/3/5
f 181/3/5 178/3/5 177/3/5
f 181/3/5 177/3/5 175/3/5
f 182/3/5 178/3/5 181/3/5
f 183/6/5 179/6/5 178/6/5
f 183/3/5 178/3/5 182/3/5
f 184/3/5 180/3/5 179/3/5
f 184/6/5 179/6/5 183/6/5
f 185/3/5 174/3/5 180/3/5
f 185/3/5 180/3/5 184/3/5
f 186/3/5 174/3/5 185/3/5
f 187/3/5 184/3/5 183/3/5
f 187/3/5 185/3/5 184/3/5
f 187/3/5 183/3/5 182/3/5
f 188/3/5 185/3/5 187/3/5
f 193/3/5 190/3/5 189/3/5
f 194/3/5 190/3/5 193/3/5
f 195/3/5 192/3/5 191/3/5
f 196/3/5 192/3/5 195/3/5
f 197/3/5 195/3/5 194/3/5
f 198/3/5 195/3/5 197/3/5
f 201/3/5 200/3/5 199/3/5
f 202/3/5 200/3/5 201/3/5
f 203/3/5 200/3/5 202/3/5
f 204/3/6 205/3/6 206/3/6
f 206/3/6 205/3/6 207/3/6
f 208/3/6 209/3/6 210/3/6
f 210/3/6 209/3/6 211/3/6
f 211/3/6 209/3/6 212/3/6
f 212/3/6 213/3/6 216/3/6
f 211/3/6 212/3/6 216/3/6
f 216/3/6 213/3/6 217/3/6
f 217/3/6 213/3/6 218/3/6
f 214/3/6 215/3/6 219/3/6
f 219/3/6 215/3/6 220/3/6
f 218/3/6 213/3/6 223/3/6
f 223/3/6 213/3/6 224/3/6
f 220/3/6 221/3/6 225/3/6
f 225/3/6 221/3/6 226/3/6
f 222/3/6 223/3/6 227/3/6
f 227/3/6 223/3/6 228/3/6
f 226/3/6 227/3/6 229/3/6
f 229/3/6 227/3/6 230/3/6
f 231/3/6 232/3/6 233/3/6
f 233/3/6 232/3/6 234/3/6
f 234/3/6 232/3/6 235/3/6
f 231/3/6 233/3/6 238/3/6
f 238/3/6 233/3/6 239/3/6
f 236/3/6 237/3/6 240/3/6
f 240/3/6 237/3/6 241/3/6
f 239/3/6 240/3/6 242/3/6
f 242/3/6 240/3/6 243/3/6
f 244/3/6 245/3/6 247/3/6
f 245/1/6 246/1/6 247/1/6
f 247/1/6 246/1/6 248/1/6
f 248/1/6 246/1/6 249/1/6
f 244/3/6 247/3/6 250/3/6
f 247/3/6 248/3/6 250/3/6
f 250/3/6 248/3/6 251/3/6
